<svg width="28" height="28" viewBox="0 0 28 28" fill="none" xmlns="http://www.w3.org/2000/svg">
<path d="M3.41176 15.2759H12.5882V8.73306H3.41176V15.2759ZM3.41176 7.3213H23.1765V4.28071C23.1765 4.02729 23.0951 3.81906 22.9322 3.656C22.7692 3.49318 22.5609 3.41176 22.3075 3.41176H4.28071C4.02729 3.41176 3.81906 3.49318 3.656 3.656C3.49318 3.81906 3.41176 4.02729 3.41176 4.28071V7.3213ZM4.28071 24.5882C3.63082 24.5882 3.08824 24.3706 2.65294 23.9353C2.21765 23.5 2 22.9574 2 22.3075V4.28071C2 3.63082 2.21765 3.08824 2.65294 2.65294C3.08824 2.21765 3.63082 2 4.28071 2H22.3075C22.9574 2 23.5 2.21765 23.9353 2.65294C24.3706 3.08824 24.5882 3.63082 24.5882 4.28071V12.8759C24.3584 12.7964 24.1245 12.7453 23.8866 12.7227C23.6485 12.7001 23.4118 12.6969 23.1765 12.7132C22.7005 12.7529 22.2466 12.8665 21.8148 13.0538C21.3833 13.2411 20.9884 13.5139 20.63 13.8722L19.1992 15.2759L12.5882 21.8787V24.5882H4.28071ZM4.28071 23.1765H12.5882V16.6876H3.41176V22.3075C3.41176 22.5609 3.49318 22.7692 3.656 22.9322C3.81906 23.0951 4.02729 23.1765 4.28071 23.1765ZM14 15.2759H19.1992L20.63 13.8722C20.9884 13.5139 21.3833 13.2411 21.8148 13.0538C22.2466 12.8665 22.7005 12.7529 23.1765 12.7132V8.73306H14V15.2759ZM15.0316 26V22.8807L22.5602 15.3874C22.6995 15.2479 22.8444 15.1538 22.9947 15.1051C23.1448 15.0561 23.2951 15.0316 23.4454 15.0316C23.6009 15.0316 23.7584 15.062 23.9176 15.1227C24.0769 15.1832 24.2172 15.2741 24.3384 15.3955L25.6442 16.7286C25.7602 16.8679 25.8485 17.0127 25.9089 17.1631C25.9696 17.3132 26 17.4633 26 17.6134C26 17.7638 25.9711 17.9154 25.9132 18.0684C25.8553 18.2213 25.7656 18.3674 25.6442 18.5067L18.1513 26H15.0316ZM16.2807 24.7513H17.6219L22.5168 19.8479L21.2109 18.4876L16.2807 23.4101V24.7513ZM21.8544 19.1773L21.2109 18.4876L22.5168 19.8479L21.8544 19.1773Z" fill="black"/>
</svg>
